<mxfile host="65bd71144e">
    <diagram id="LgyVy9p5riFPf54SSGml" name="architecture">
        <mxGraphModel dx="1238" dy="1075" grid="1" gridSize="10" guides="1" tooltips="1" connect="1" arrows="1" fold="1" page="1" pageScale="1" pageWidth="827" pageHeight="1169" math="0" shadow="0">
            <root>
                <mxCell id="0"/>
                <mxCell id="1" parent="0"/>
                <mxCell id="10" value="" style="rounded=0;whiteSpace=wrap;html=1;" parent="1" vertex="1">
                    <mxGeometry x="40" y="30" width="820" height="1070" as="geometry"/>
                </mxCell>
                <mxCell id="11" value="Link" style="text;html=1;strokeColor=none;fillColor=none;align=center;verticalAlign=middle;whiteSpace=wrap;rounded=0;" parent="1" vertex="1">
                    <mxGeometry x="50" y="40" width="60" height="30" as="geometry"/>
                </mxCell>
                <mxCell id="12" value="" style="rounded=0;whiteSpace=wrap;html=1;" parent="1" vertex="1">
                    <mxGeometry x="70" y="90" width="310" height="360" as="geometry"/>
                </mxCell>
                <mxCell id="13" value="Module" style="text;html=1;strokeColor=none;fillColor=none;align=center;verticalAlign=middle;whiteSpace=wrap;rounded=0;" parent="1" vertex="1">
                    <mxGeometry x="80" y="100" width="60" height="30" as="geometry"/>
                </mxCell>
                <mxCell id="14" value="" style="rounded=0;whiteSpace=wrap;html=1;" parent="1" vertex="1">
                    <mxGeometry x="90" y="140" width="270" height="300" as="geometry"/>
                </mxCell>
                <mxCell id="17" value="ModuleController" style="text;html=1;strokeColor=none;fillColor=none;align=center;verticalAlign=middle;whiteSpace=wrap;rounded=0;" parent="1" vertex="1">
                    <mxGeometry x="120" y="150" width="60" height="30" as="geometry"/>
                </mxCell>
                <mxCell id="18" value="ModuleExecutor" style="rounded=0;whiteSpace=wrap;html=1;" parent="1" vertex="1">
                    <mxGeometry x="110" y="360" width="230" height="60" as="geometry"/>
                </mxCell>
                <mxCell id="19" value="ModuleLoader" style="rounded=0;whiteSpace=wrap;html=1;" parent="1" vertex="1">
                    <mxGeometry x="110" y="280" width="230" height="60" as="geometry"/>
                </mxCell>
                <mxCell id="20" value="UserModuleBase" style="rounded=0;whiteSpace=wrap;html=1;" parent="1" vertex="1">
                    <mxGeometry x="110" y="200" width="230" height="60" as="geometry"/>
                </mxCell>
                <mxCell id="21" value="" style="rounded=0;whiteSpace=wrap;html=1;" parent="1" vertex="1">
                    <mxGeometry x="430" y="90" width="390" height="360" as="geometry"/>
                </mxCell>
                <mxCell id="22" value="Components" style="text;html=1;strokeColor=none;fillColor=none;align=center;verticalAlign=middle;whiteSpace=wrap;rounded=0;" parent="1" vertex="1">
                    <mxGeometry x="445" y="100" width="60" height="30" as="geometry"/>
                </mxCell>
                <mxCell id="23" value="" style="rounded=0;whiteSpace=wrap;html=1;" parent="1" vertex="1">
                    <mxGeometry x="450" y="270" width="350" height="160" as="geometry"/>
                </mxCell>
                <mxCell id="24" value="rpc_Component" style="rounded=0;whiteSpace=wrap;html=1;" parent="1" vertex="1">
                    <mxGeometry x="450" y="130" width="350" height="60" as="geometry"/>
                </mxCell>
                <mxCell id="25" value="http_Component" style="rounded=0;whiteSpace=wrap;html=1;" parent="1" vertex="1">
                    <mxGeometry x="450" y="199" width="350" height="60" as="geometry"/>
                </mxCell>
                <mxCell id="27" value="shared_memory_Component" style="rounded=0;whiteSpace=wrap;html=1;" parent="1" vertex="1">
                    <mxGeometry x="480" y="310" width="260" height="30" as="geometry"/>
                </mxCell>
                <mxCell id="28" value="ipc_component" style="text;html=1;strokeColor=none;fillColor=none;align=center;verticalAlign=middle;whiteSpace=wrap;rounded=0;" parent="1" vertex="1">
                    <mxGeometry x="470" y="275" width="60" height="30" as="geometry"/>
                </mxCell>
                <mxCell id="29" value="pipe_Component" style="rounded=0;whiteSpace=wrap;html=1;" parent="1" vertex="1">
                    <mxGeometry x="480" y="350" width="260" height="30" as="geometry"/>
                </mxCell>
                <mxCell id="30" value="" style="rounded=0;whiteSpace=wrap;html=1;" parent="1" vertex="1">
                    <mxGeometry x="70" y="900" width="750" height="170" as="geometry"/>
                </mxCell>
                <mxCell id="31" value="base" style="text;html=1;strokeColor=none;fillColor=none;align=center;verticalAlign=middle;whiteSpace=wrap;rounded=0;" parent="1" vertex="1">
                    <mxGeometry x="70" y="900" width="60" height="30" as="geometry"/>
                </mxCell>
                <mxCell id="32" value="Task" style="rounded=0;whiteSpace=wrap;html=1;" parent="1" vertex="1">
                    <mxGeometry x="100" y="1000" width="120" height="44" as="geometry"/>
                </mxCell>
                <mxCell id="33" value="JsonWrapper" style="rounded=0;whiteSpace=wrap;html=1;" parent="1" vertex="1">
                    <mxGeometry x="100" y="934" width="120" height="50" as="geometry"/>
                </mxCell>
                <mxCell id="34" value="Callback" style="rounded=0;whiteSpace=wrap;html=1;" parent="1" vertex="1">
                    <mxGeometry x="250" y="1000" width="120" height="44" as="geometry"/>
                </mxCell>
                <mxCell id="35" value="Logging" style="rounded=0;whiteSpace=wrap;html=1;" parent="1" vertex="1">
                    <mxGeometry x="394" y="1000" width="120" height="44" as="geometry"/>
                </mxCell>
                <mxCell id="36" value="Time" style="rounded=0;whiteSpace=wrap;html=1;" parent="1" vertex="1">
                    <mxGeometry x="540" y="1000" width="120" height="44" as="geometry"/>
                </mxCell>
                <mxCell id="37" value="utils" style="rounded=0;whiteSpace=wrap;html=1;" parent="1" vertex="1">
                    <mxGeometry x="680" y="1000" width="120" height="44" as="geometry"/>
                </mxCell>
                <mxCell id="38" value="Argument" style="rounded=0;whiteSpace=wrap;html=1;" parent="1" vertex="1">
                    <mxGeometry x="250" y="934" width="120" height="50" as="geometry"/>
                </mxCell>
                <mxCell id="40" value="File" style="rounded=0;whiteSpace=wrap;html=1;" parent="1" vertex="1">
                    <mxGeometry x="394" y="934" width="120" height="50" as="geometry"/>
                </mxCell>
                <mxCell id="41" value="" style="rounded=0;whiteSpace=wrap;html=1;" parent="1" vertex="1">
                    <mxGeometry x="70" y="474" width="750" height="116" as="geometry"/>
                </mxCell>
                <mxCell id="42" value="DataBase" style="text;html=1;strokeColor=none;fillColor=none;align=center;verticalAlign=middle;whiteSpace=wrap;rounded=0;" parent="1" vertex="1">
                    <mxGeometry x="80" y="480" width="60" height="30" as="geometry"/>
                </mxCell>
                <mxCell id="43" value="" style="rounded=0;whiteSpace=wrap;html=1;" parent="1" vertex="1">
                    <mxGeometry x="70" y="610" width="750" height="116" as="geometry"/>
                </mxCell>
                <mxCell id="44" value="Web" style="text;html=1;strokeColor=none;fillColor=none;align=center;verticalAlign=middle;whiteSpace=wrap;rounded=0;" parent="1" vertex="1">
                    <mxGeometry x="70" y="610" width="60" height="30" as="geometry"/>
                </mxCell>
                <mxCell id="45" value="" style="rounded=0;whiteSpace=wrap;html=1;" parent="1" vertex="1">
                    <mxGeometry x="70" y="750" width="750" height="116" as="geometry"/>
                </mxCell>
                <mxCell id="46" value="Net" style="text;html=1;strokeColor=none;fillColor=none;align=center;verticalAlign=middle;whiteSpace=wrap;rounded=0;" parent="1" vertex="1">
                    <mxGeometry x="70" y="750" width="60" height="30" as="geometry"/>
                </mxCell>
                <mxCell id="47" value="Buffer" style="rounded=0;whiteSpace=wrap;html=1;" parent="1" vertex="1">
                    <mxGeometry x="540" y="934" width="120" height="50" as="geometry"/>
                </mxCell>
                <mxCell id="51" value="socket_Component" style="rounded=0;whiteSpace=wrap;html=1;" parent="1" vertex="1">
                    <mxGeometry x="480" y="390" width="260" height="30" as="geometry"/>
                </mxCell>
            </root>
        </mxGraphModel>
    </diagram>
    <diagram id="JJT3adKmF4t2psf9ml5j" name="module">
        <mxGraphModel dx="1238" dy="1075" grid="1" gridSize="10" guides="1" tooltips="1" connect="1" arrows="1" fold="1" page="1" pageScale="1" pageWidth="827" pageHeight="1169" math="0" shadow="0">
            <root>
                <mxCell id="XbeN9in1GbnzsduU7_B5-0"/>
                <mxCell id="XbeN9in1GbnzsduU7_B5-1" parent="XbeN9in1GbnzsduU7_B5-0"/>
                <mxCell id="PYL3zdBYoN4RNc0O12sH-3" value="" style="rounded=0;whiteSpace=wrap;html=1;" parent="XbeN9in1GbnzsduU7_B5-1" vertex="1">
                    <mxGeometry x="80" y="50" width="260" height="470" as="geometry"/>
                </mxCell>
                <mxCell id="jRvDh89OV8ShlTZ4z6kA-7" value="" style="rounded=0;whiteSpace=wrap;html=1;" parent="XbeN9in1GbnzsduU7_B5-1" vertex="1">
                    <mxGeometry x="350" y="50" width="340" height="470" as="geometry"/>
                </mxCell>
                <mxCell id="XbeN9in1GbnzsduU7_B5-2" value="User Module" style="rounded=0;whiteSpace=wrap;html=1;" parent="XbeN9in1GbnzsduU7_B5-1" vertex="1">
                    <mxGeometry x="120" y="90" width="120" height="60" as="geometry"/>
                </mxCell>
                <mxCell id="XbeN9in1GbnzsduU7_B5-3" value="User Module" style="rounded=0;whiteSpace=wrap;html=1;" parent="XbeN9in1GbnzsduU7_B5-1" vertex="1">
                    <mxGeometry x="370" y="90" width="120" height="60" as="geometry"/>
                </mxCell>
                <mxCell id="XbeN9in1GbnzsduU7_B5-5" value="Module Loader" style="rounded=0;whiteSpace=wrap;html=1;" parent="XbeN9in1GbnzsduU7_B5-1" vertex="1">
                    <mxGeometry x="100" y="330" width="220" height="60" as="geometry"/>
                </mxCell>
                <mxCell id="XbeN9in1GbnzsduU7_B5-6" value="User Module" style="rounded=0;whiteSpace=wrap;html=1;" parent="XbeN9in1GbnzsduU7_B5-1" vertex="1">
                    <mxGeometry x="530" y="90" width="120" height="60" as="geometry"/>
                </mxCell>
                <mxCell id="XbeN9in1GbnzsduU7_B5-7" value="Module Loader" style="rounded=0;whiteSpace=wrap;html=1;" parent="XbeN9in1GbnzsduU7_B5-1" vertex="1">
                    <mxGeometry x="370" y="330" width="280" height="60" as="geometry"/>
                </mxCell>
                <mxCell id="XbeN9in1GbnzsduU7_B5-8" value="&lt;span&gt;ModuleController&lt;br&gt;&lt;/span&gt;" style="rounded=0;whiteSpace=wrap;html=1;" parent="XbeN9in1GbnzsduU7_B5-1" vertex="1">
                    <mxGeometry x="100" y="530" width="550" height="60" as="geometry"/>
                </mxCell>
                <mxCell id="2O1xlTzjCVljMS2MvAQ0-1" value="Module Executor" style="rounded=0;whiteSpace=wrap;html=1;fontStyle=0" parent="XbeN9in1GbnzsduU7_B5-1" vertex="1">
                    <mxGeometry x="100" y="440" width="220" height="60" as="geometry"/>
                </mxCell>
                <mxCell id="jRvDh89OV8ShlTZ4z6kA-0" value="&lt;span style=&quot;color: rgba(0 , 0 , 0 , 0) ; font-family: monospace ; font-size: 0px&quot;&gt;%3CmxGraphModel%3E%3Croot%3E%3CmxCell%20id%3D%220%22%2F%3E%3CmxCell%20id%3D%221%22%20parent%3D%220%22%2F%3E%3CmxCell%20id%3D%222%22%20value%3D%22ModuleFactory%22%20style%3D%22rounded%3D0%3BwhiteSpace%3Dwrap%3Bhtml%3D1%3B%22%20vertex%3D%221%22%20parent%3D%221%22%3E%3CmxGeometry%20x%3D%22100%22%20y%3D%22180%22%20width%3D%22520%22%20height%3D%2260%22%20as%3D%22geometry%22%2F%3E%3C%2FmxCell%3E%3C%2Froot%3E%3C%2FmxGraphModel%3E&lt;/span&gt;&lt;span style=&quot;color: rgba(0 , 0 , 0 , 0) ; font-family: monospace ; font-size: 0px&quot;&gt;%3CmxGraphModel%3E%3Croot%3E%3CmxCell%20id%3D%220%22%2F%3E%3CmxCell%20id%3D%221%22%20parent%3D%220%22%2F%3E%3CmxCell%20id%3D%222%22%20value%3D%22ModuleFactory%22%20style%3D%22rounded%3D0%3BwhiteSpace%3Dwrap%3Bhtml%3D1%3B%22%20vertex%3D%221%22%20parent%3D%221%22%3E%3CmxGeometry%20x%3D%22100%22%20y%3D%22180%22%20width%3D%22520%22%20height%3D%2260%22%20as%3D%22geometry%22%2F%3E%3C%2FmxCell%3E%3C%2Froot%3E%3C%2FmxGraphModel%3E&lt;/span&gt;" style="rounded=0;whiteSpace=wrap;html=1;" parent="XbeN9in1GbnzsduU7_B5-1" vertex="1">
                    <mxGeometry x="100" y="170" width="570" height="140" as="geometry"/>
                </mxCell>
                <mxCell id="jRvDh89OV8ShlTZ4z6kA-1" value="ModuleFactory" style="rounded=0;whiteSpace=wrap;html=1;" parent="XbeN9in1GbnzsduU7_B5-1" vertex="1">
                    <mxGeometry x="120" y="230" width="120" height="60" as="geometry"/>
                </mxCell>
                <mxCell id="jRvDh89OV8ShlTZ4z6kA-2" value="ModuleFactory" style="rounded=0;whiteSpace=wrap;html=1;" parent="XbeN9in1GbnzsduU7_B5-1" vertex="1">
                    <mxGeometry x="370" y="230" width="120" height="60" as="geometry"/>
                </mxCell>
                <mxCell id="jRvDh89OV8ShlTZ4z6kA-3" value="ModuleFactory" style="rounded=0;whiteSpace=wrap;html=1;" parent="XbeN9in1GbnzsduU7_B5-1" vertex="1">
                    <mxGeometry x="530" y="230" width="120" height="60" as="geometry"/>
                </mxCell>
                <mxCell id="jRvDh89OV8ShlTZ4z6kA-5" value="Module Register(Singleton)" style="text;html=1;strokeColor=none;fillColor=none;align=center;verticalAlign=middle;whiteSpace=wrap;rounded=0;" parent="XbeN9in1GbnzsduU7_B5-1" vertex="1">
                    <mxGeometry x="100" y="170" width="160" height="30" as="geometry"/>
                </mxCell>
                <mxCell id="PYL3zdBYoN4RNc0O12sH-0" value="Module Executor" style="rounded=0;whiteSpace=wrap;html=1;fontStyle=0" parent="XbeN9in1GbnzsduU7_B5-1" vertex="1">
                    <mxGeometry x="370" y="440" width="280" height="60" as="geometry"/>
                </mxCell>
                <mxCell id="PYL3zdBYoN4RNc0O12sH-6" value="Task Runner 1" style="text;html=1;strokeColor=none;fillColor=none;align=center;verticalAlign=middle;whiteSpace=wrap;rounded=0;" parent="XbeN9in1GbnzsduU7_B5-1" vertex="1">
                    <mxGeometry x="80" y="50" width="90" height="30" as="geometry"/>
                </mxCell>
                <mxCell id="PYL3zdBYoN4RNc0O12sH-7" value="Task Runner 2" style="text;html=1;strokeColor=none;fillColor=none;align=center;verticalAlign=middle;whiteSpace=wrap;rounded=0;" parent="XbeN9in1GbnzsduU7_B5-1" vertex="1">
                    <mxGeometry x="350" y="50" width="90" height="30" as="geometry"/>
                </mxCell>
                <mxCell id="GXodFD7sdriI3j1JUaxQ-2" value="ModuleController" style="swimlane;fontStyle=1;align=center;verticalAlign=top;childLayout=stackLayout;horizontal=1;startSize=26;horizontalStack=0;resizeParent=1;resizeParentMax=0;resizeLast=0;collapsible=1;marginBottom=0;" parent="XbeN9in1GbnzsduU7_B5-1" vertex="1">
                    <mxGeometry x="400" y="830" width="160" height="86" as="geometry"/>
                </mxCell>
                <mxCell id="GXodFD7sdriI3j1JUaxQ-3" value="+ field: type" style="text;strokeColor=none;fillColor=none;align=left;verticalAlign=top;spacingLeft=4;spacingRight=4;overflow=hidden;rotatable=0;points=[[0,0.5],[1,0.5]];portConstraint=eastwest;" parent="GXodFD7sdriI3j1JUaxQ-2" vertex="1">
                    <mxGeometry y="26" width="160" height="26" as="geometry"/>
                </mxCell>
                <mxCell id="GXodFD7sdriI3j1JUaxQ-4" value="" style="line;strokeWidth=1;fillColor=none;align=left;verticalAlign=middle;spacingTop=-1;spacingLeft=3;spacingRight=3;rotatable=0;labelPosition=right;points=[];portConstraint=eastwest;" parent="GXodFD7sdriI3j1JUaxQ-2" vertex="1">
                    <mxGeometry y="52" width="160" height="8" as="geometry"/>
                </mxCell>
                <mxCell id="GXodFD7sdriI3j1JUaxQ-5" value="+ method(type): type" style="text;strokeColor=none;fillColor=none;align=left;verticalAlign=top;spacingLeft=4;spacingRight=4;overflow=hidden;rotatable=0;points=[[0,0.5],[1,0.5]];portConstraint=eastwest;" parent="GXodFD7sdriI3j1JUaxQ-2" vertex="1">
                    <mxGeometry y="60" width="160" height="26" as="geometry"/>
                </mxCell>
                <mxCell id="GXodFD7sdriI3j1JUaxQ-6" value="ModuleExecutor" style="swimlane;fontStyle=1;align=center;verticalAlign=top;childLayout=stackLayout;horizontal=1;startSize=26;horizontalStack=0;resizeParent=1;resizeParentMax=0;resizeLast=0;collapsible=1;marginBottom=0;" parent="XbeN9in1GbnzsduU7_B5-1" vertex="1">
                    <mxGeometry x="640" y="830" width="160" height="86" as="geometry"/>
                </mxCell>
                <mxCell id="GXodFD7sdriI3j1JUaxQ-7" value="+ field: type" style="text;strokeColor=none;fillColor=none;align=left;verticalAlign=top;spacingLeft=4;spacingRight=4;overflow=hidden;rotatable=0;points=[[0,0.5],[1,0.5]];portConstraint=eastwest;" parent="GXodFD7sdriI3j1JUaxQ-6" vertex="1">
                    <mxGeometry y="26" width="160" height="26" as="geometry"/>
                </mxCell>
                <mxCell id="GXodFD7sdriI3j1JUaxQ-8" value="" style="line;strokeWidth=1;fillColor=none;align=left;verticalAlign=middle;spacingTop=-1;spacingLeft=3;spacingRight=3;rotatable=0;labelPosition=right;points=[];portConstraint=eastwest;" parent="GXodFD7sdriI3j1JUaxQ-6" vertex="1">
                    <mxGeometry y="52" width="160" height="8" as="geometry"/>
                </mxCell>
                <mxCell id="GXodFD7sdriI3j1JUaxQ-9" value="+ method(type): type" style="text;strokeColor=none;fillColor=none;align=left;verticalAlign=top;spacingLeft=4;spacingRight=4;overflow=hidden;rotatable=0;points=[[0,0.5],[1,0.5]];portConstraint=eastwest;" parent="GXodFD7sdriI3j1JUaxQ-6" vertex="1">
                    <mxGeometry y="60" width="160" height="26" as="geometry"/>
                </mxCell>
                <mxCell id="GXodFD7sdriI3j1JUaxQ-10" value="ModuleLoader" style="swimlane;fontStyle=1;align=center;verticalAlign=top;childLayout=stackLayout;horizontal=1;startSize=26;horizontalStack=0;resizeParent=1;resizeParentMax=0;resizeLast=0;collapsible=1;marginBottom=0;" parent="XbeN9in1GbnzsduU7_B5-1" vertex="1">
                    <mxGeometry x="880" y="830" width="160" height="86" as="geometry"/>
                </mxCell>
                <mxCell id="GXodFD7sdriI3j1JUaxQ-11" value="+ field: type" style="text;strokeColor=none;fillColor=none;align=left;verticalAlign=top;spacingLeft=4;spacingRight=4;overflow=hidden;rotatable=0;points=[[0,0.5],[1,0.5]];portConstraint=eastwest;" parent="GXodFD7sdriI3j1JUaxQ-10" vertex="1">
                    <mxGeometry y="26" width="160" height="26" as="geometry"/>
                </mxCell>
                <mxCell id="GXodFD7sdriI3j1JUaxQ-12" value="" style="line;strokeWidth=1;fillColor=none;align=left;verticalAlign=middle;spacingTop=-1;spacingLeft=3;spacingRight=3;rotatable=0;labelPosition=right;points=[];portConstraint=eastwest;" parent="GXodFD7sdriI3j1JUaxQ-10" vertex="1">
                    <mxGeometry y="52" width="160" height="8" as="geometry"/>
                </mxCell>
                <mxCell id="GXodFD7sdriI3j1JUaxQ-13" value="+ method(type): type" style="text;strokeColor=none;fillColor=none;align=left;verticalAlign=top;spacingLeft=4;spacingRight=4;overflow=hidden;rotatable=0;points=[[0,0.5],[1,0.5]];portConstraint=eastwest;" parent="GXodFD7sdriI3j1JUaxQ-10" vertex="1">
                    <mxGeometry y="60" width="160" height="26" as="geometry"/>
                </mxCell>
                <mxCell id="GXodFD7sdriI3j1JUaxQ-18" value="UserModule" style="swimlane;fontStyle=1;align=center;verticalAlign=top;childLayout=stackLayout;horizontal=1;startSize=26;horizontalStack=0;resizeParent=1;resizeParentMax=0;resizeLast=0;collapsible=1;marginBottom=0;" parent="XbeN9in1GbnzsduU7_B5-1" vertex="1">
                    <mxGeometry x="1100" y="692" width="160" height="86" as="geometry"/>
                </mxCell>
                <mxCell id="GXodFD7sdriI3j1JUaxQ-19" value="+ field: type" style="text;strokeColor=none;fillColor=none;align=left;verticalAlign=top;spacingLeft=4;spacingRight=4;overflow=hidden;rotatable=0;points=[[0,0.5],[1,0.5]];portConstraint=eastwest;" parent="GXodFD7sdriI3j1JUaxQ-18" vertex="1">
                    <mxGeometry y="26" width="160" height="26" as="geometry"/>
                </mxCell>
                <mxCell id="GXodFD7sdriI3j1JUaxQ-20" value="" style="line;strokeWidth=1;fillColor=none;align=left;verticalAlign=middle;spacingTop=-1;spacingLeft=3;spacingRight=3;rotatable=0;labelPosition=right;points=[];portConstraint=eastwest;" parent="GXodFD7sdriI3j1JUaxQ-18" vertex="1">
                    <mxGeometry y="52" width="160" height="8" as="geometry"/>
                </mxCell>
                <mxCell id="GXodFD7sdriI3j1JUaxQ-21" value="+ method(type): type" style="text;strokeColor=none;fillColor=none;align=left;verticalAlign=top;spacingLeft=4;spacingRight=4;overflow=hidden;rotatable=0;points=[[0,0.5],[1,0.5]];portConstraint=eastwest;" parent="GXodFD7sdriI3j1JUaxQ-18" vertex="1">
                    <mxGeometry y="60" width="160" height="26" as="geometry"/>
                </mxCell>
                <mxCell id="GXodFD7sdriI3j1JUaxQ-22" value="«interface»&lt;br&gt;&lt;b&gt;Module&lt;/b&gt;" style="html=1;" parent="XbeN9in1GbnzsduU7_B5-1" vertex="1">
                    <mxGeometry x="905" y="710" width="110" height="50" as="geometry"/>
                </mxCell>
                <mxCell id="GXodFD7sdriI3j1JUaxQ-27" value="" style="endArrow=block;dashed=1;endFill=0;endSize=12;html=1;entryX=1;entryY=0.5;entryDx=0;entryDy=0;" parent="XbeN9in1GbnzsduU7_B5-1" source="GXodFD7sdriI3j1JUaxQ-18" target="GXodFD7sdriI3j1JUaxQ-22" edge="1">
                    <mxGeometry width="160" relative="1" as="geometry">
                        <mxPoint x="1110" y="928" as="sourcePoint"/>
                        <mxPoint x="1270" y="928" as="targetPoint"/>
                    </mxGeometry>
                </mxCell>
                <mxCell id="GXodFD7sdriI3j1JUaxQ-30" value="" style="endArrow=none;html=1;edgeStyle=orthogonalEdgeStyle;" parent="XbeN9in1GbnzsduU7_B5-1" source="GXodFD7sdriI3j1JUaxQ-10" target="GXodFD7sdriI3j1JUaxQ-22" edge="1">
                    <mxGeometry relative="1" as="geometry">
                        <mxPoint x="1080" y="870" as="sourcePoint"/>
                        <mxPoint x="1110" y="840" as="targetPoint"/>
                    </mxGeometry>
                </mxCell>
                <mxCell id="GXodFD7sdriI3j1JUaxQ-31" value="parent" style="edgeLabel;resizable=0;html=1;align=left;verticalAlign=bottom;" parent="GXodFD7sdriI3j1JUaxQ-30" connectable="0" vertex="1">
                    <mxGeometry x="-1" relative="1" as="geometry"/>
                </mxCell>
                <mxCell id="GXodFD7sdriI3j1JUaxQ-32" value="child" style="edgeLabel;resizable=0;html=1;align=right;verticalAlign=bottom;" parent="GXodFD7sdriI3j1JUaxQ-30" connectable="0" vertex="1">
                    <mxGeometry x="1" relative="1" as="geometry">
                        <mxPoint y="16" as="offset"/>
                    </mxGeometry>
                </mxCell>
                <mxCell id="GXodFD7sdriI3j1JUaxQ-33" value="" style="endArrow=none;html=1;edgeStyle=orthogonalEdgeStyle;" parent="XbeN9in1GbnzsduU7_B5-1" source="GXodFD7sdriI3j1JUaxQ-6" target="GXodFD7sdriI3j1JUaxQ-10" edge="1">
                    <mxGeometry relative="1" as="geometry">
                        <mxPoint x="1050" y="882.9999999999998" as="sourcePoint"/>
                        <mxPoint x="1150" y="882.9999999999998" as="targetPoint"/>
                    </mxGeometry>
                </mxCell>
                <mxCell id="GXodFD7sdriI3j1JUaxQ-34" value="parent" style="edgeLabel;resizable=0;html=1;align=left;verticalAlign=bottom;" parent="GXodFD7sdriI3j1JUaxQ-33" connectable="0" vertex="1">
                    <mxGeometry x="-1" relative="1" as="geometry"/>
                </mxCell>
                <mxCell id="GXodFD7sdriI3j1JUaxQ-35" value="child" style="edgeLabel;resizable=0;html=1;align=right;verticalAlign=bottom;" parent="GXodFD7sdriI3j1JUaxQ-33" connectable="0" vertex="1">
                    <mxGeometry x="1" relative="1" as="geometry"/>
                </mxCell>
                <mxCell id="GXodFD7sdriI3j1JUaxQ-36" value="" style="endArrow=none;html=1;edgeStyle=orthogonalEdgeStyle;" parent="XbeN9in1GbnzsduU7_B5-1" source="GXodFD7sdriI3j1JUaxQ-2" target="GXodFD7sdriI3j1JUaxQ-6" edge="1">
                    <mxGeometry relative="1" as="geometry">
                        <mxPoint x="810" y="882.9999999999998" as="sourcePoint"/>
                        <mxPoint x="890" y="882.9999999999998" as="targetPoint"/>
                    </mxGeometry>
                </mxCell>
                <mxCell id="GXodFD7sdriI3j1JUaxQ-37" value="parent" style="edgeLabel;resizable=0;html=1;align=left;verticalAlign=bottom;" parent="GXodFD7sdriI3j1JUaxQ-36" connectable="0" vertex="1">
                    <mxGeometry x="-1" relative="1" as="geometry"/>
                </mxCell>
                <mxCell id="GXodFD7sdriI3j1JUaxQ-38" value="child" style="edgeLabel;resizable=0;html=1;align=right;verticalAlign=bottom;" parent="GXodFD7sdriI3j1JUaxQ-36" connectable="0" vertex="1">
                    <mxGeometry x="1" relative="1" as="geometry"/>
                </mxCell>
                <mxCell id="GXodFD7sdriI3j1JUaxQ-39" value="ModuleRegister" style="swimlane;fontStyle=1;align=center;verticalAlign=top;childLayout=stackLayout;horizontal=1;startSize=26;horizontalStack=0;resizeParent=1;resizeParentMax=0;resizeLast=0;collapsible=1;marginBottom=0;" parent="XbeN9in1GbnzsduU7_B5-1" vertex="1">
                    <mxGeometry x="880" y="1000" width="160" height="86" as="geometry"/>
                </mxCell>
                <mxCell id="GXodFD7sdriI3j1JUaxQ-40" value="+ field: type" style="text;strokeColor=none;fillColor=none;align=left;verticalAlign=top;spacingLeft=4;spacingRight=4;overflow=hidden;rotatable=0;points=[[0,0.5],[1,0.5]];portConstraint=eastwest;" parent="GXodFD7sdriI3j1JUaxQ-39" vertex="1">
                    <mxGeometry y="26" width="160" height="26" as="geometry"/>
                </mxCell>
                <mxCell id="GXodFD7sdriI3j1JUaxQ-41" value="" style="line;strokeWidth=1;fillColor=none;align=left;verticalAlign=middle;spacingTop=-1;spacingLeft=3;spacingRight=3;rotatable=0;labelPosition=right;points=[];portConstraint=eastwest;" parent="GXodFD7sdriI3j1JUaxQ-39" vertex="1">
                    <mxGeometry y="52" width="160" height="8" as="geometry"/>
                </mxCell>
                <mxCell id="GXodFD7sdriI3j1JUaxQ-42" value="+ method(type): type" style="text;strokeColor=none;fillColor=none;align=left;verticalAlign=top;spacingLeft=4;spacingRight=4;overflow=hidden;rotatable=0;points=[[0,0.5],[1,0.5]];portConstraint=eastwest;" parent="GXodFD7sdriI3j1JUaxQ-39" vertex="1">
                    <mxGeometry y="60" width="160" height="26" as="geometry"/>
                </mxCell>
                <mxCell id="GXodFD7sdriI3j1JUaxQ-43" value="ModuleFactory" style="swimlane;fontStyle=1;align=center;verticalAlign=top;childLayout=stackLayout;horizontal=1;startSize=26;horizontalStack=0;resizeParent=1;resizeParentMax=0;resizeLast=0;collapsible=1;marginBottom=0;" parent="XbeN9in1GbnzsduU7_B5-1" vertex="1">
                    <mxGeometry x="1111" y="1000" width="160" height="86" as="geometry"/>
                </mxCell>
                <mxCell id="GXodFD7sdriI3j1JUaxQ-44" value="+ field: type" style="text;strokeColor=none;fillColor=none;align=left;verticalAlign=top;spacingLeft=4;spacingRight=4;overflow=hidden;rotatable=0;points=[[0,0.5],[1,0.5]];portConstraint=eastwest;" parent="GXodFD7sdriI3j1JUaxQ-43" vertex="1">
                    <mxGeometry y="26" width="160" height="26" as="geometry"/>
                </mxCell>
                <mxCell id="GXodFD7sdriI3j1JUaxQ-45" value="" style="line;strokeWidth=1;fillColor=none;align=left;verticalAlign=middle;spacingTop=-1;spacingLeft=3;spacingRight=3;rotatable=0;labelPosition=right;points=[];portConstraint=eastwest;" parent="GXodFD7sdriI3j1JUaxQ-43" vertex="1">
                    <mxGeometry y="52" width="160" height="8" as="geometry"/>
                </mxCell>
                <mxCell id="GXodFD7sdriI3j1JUaxQ-46" value="+ method(type): type" style="text;strokeColor=none;fillColor=none;align=left;verticalAlign=top;spacingLeft=4;spacingRight=4;overflow=hidden;rotatable=0;points=[[0,0.5],[1,0.5]];portConstraint=eastwest;" parent="GXodFD7sdriI3j1JUaxQ-43" vertex="1">
                    <mxGeometry y="60" width="160" height="26" as="geometry"/>
                </mxCell>
                <mxCell id="GXodFD7sdriI3j1JUaxQ-47" value="" style="endArrow=none;html=1;edgeStyle=orthogonalEdgeStyle;" parent="XbeN9in1GbnzsduU7_B5-1" source="GXodFD7sdriI3j1JUaxQ-39" target="GXodFD7sdriI3j1JUaxQ-43" edge="1">
                    <mxGeometry relative="1" as="geometry">
                        <mxPoint x="790" y="882.9999999999998" as="sourcePoint"/>
                        <mxPoint x="890" y="882.9999999999998" as="targetPoint"/>
                    </mxGeometry>
                </mxCell>
                <mxCell id="GXodFD7sdriI3j1JUaxQ-48" value="parent" style="edgeLabel;resizable=0;html=1;align=left;verticalAlign=bottom;" parent="GXodFD7sdriI3j1JUaxQ-47" connectable="0" vertex="1">
                    <mxGeometry x="-1" relative="1" as="geometry"/>
                </mxCell>
                <mxCell id="GXodFD7sdriI3j1JUaxQ-49" value="child" style="edgeLabel;resizable=0;html=1;align=right;verticalAlign=bottom;" parent="GXodFD7sdriI3j1JUaxQ-47" connectable="0" vertex="1">
                    <mxGeometry x="1" relative="1" as="geometry"/>
                </mxCell>
                <mxCell id="GXodFD7sdriI3j1JUaxQ-50" value="Use" style="endArrow=open;endSize=12;dashed=1;html=1;" parent="XbeN9in1GbnzsduU7_B5-1" source="GXodFD7sdriI3j1JUaxQ-18" target="GXodFD7sdriI3j1JUaxQ-43" edge="1">
                    <mxGeometry width="160" relative="1" as="geometry">
                        <mxPoint x="1000" y="800" as="sourcePoint"/>
                        <mxPoint x="1160" y="800" as="targetPoint"/>
                        <Array as="points">
                            <mxPoint x="1180" y="860"/>
                        </Array>
                    </mxGeometry>
                </mxCell>
                <mxCell id="GXodFD7sdriI3j1JUaxQ-51" value="Use" style="endArrow=open;endSize=12;dashed=1;html=1;" parent="XbeN9in1GbnzsduU7_B5-1" source="GXodFD7sdriI3j1JUaxQ-10" target="GXodFD7sdriI3j1JUaxQ-39" edge="1">
                    <mxGeometry width="160" relative="1" as="geometry">
                        <mxPoint x="1450.2866666666669" y="925.9999999999998" as="sourcePoint"/>
                        <mxPoint x="1450.7133333333331" y="990" as="targetPoint"/>
                        <Array as="points"/>
                    </mxGeometry>
                </mxCell>
                <mxCell id="GXodFD7sdriI3j1JUaxQ-52" value="Use" style="endArrow=open;endSize=12;dashed=1;html=1;exitX=0.5;exitY=0;exitDx=0;exitDy=0;entryX=0;entryY=0.5;entryDx=0;entryDy=0;" parent="XbeN9in1GbnzsduU7_B5-1" source="GXodFD7sdriI3j1JUaxQ-6" target="GXodFD7sdriI3j1JUaxQ-22" edge="1">
                    <mxGeometry width="160" relative="1" as="geometry">
                        <mxPoint x="1193.5900000000001" y="850" as="sourcePoint"/>
                        <mxPoint x="1361.0031944444443" y="1095" as="targetPoint"/>
                        <Array as="points">
                            <mxPoint x="720" y="735"/>
                        </Array>
                    </mxGeometry>
                </mxCell>
                <mxCell id="GXodFD7sdriI3j1JUaxQ-53" value="NodeLauncher" style="swimlane;fontStyle=1;align=center;verticalAlign=top;childLayout=stackLayout;horizontal=1;startSize=26;horizontalStack=0;resizeParent=1;resizeParentMax=0;resizeLast=0;collapsible=1;marginBottom=0;" parent="XbeN9in1GbnzsduU7_B5-1" vertex="1">
                    <mxGeometry x="140" y="830" width="160" height="86" as="geometry"/>
                </mxCell>
                <mxCell id="GXodFD7sdriI3j1JUaxQ-54" value="+ field: type" style="text;strokeColor=none;fillColor=none;align=left;verticalAlign=top;spacingLeft=4;spacingRight=4;overflow=hidden;rotatable=0;points=[[0,0.5],[1,0.5]];portConstraint=eastwest;" parent="GXodFD7sdriI3j1JUaxQ-53" vertex="1">
                    <mxGeometry y="26" width="160" height="26" as="geometry"/>
                </mxCell>
                <mxCell id="GXodFD7sdriI3j1JUaxQ-55" value="" style="line;strokeWidth=1;fillColor=none;align=left;verticalAlign=middle;spacingTop=-1;spacingLeft=3;spacingRight=3;rotatable=0;labelPosition=right;points=[];portConstraint=eastwest;" parent="GXodFD7sdriI3j1JUaxQ-53" vertex="1">
                    <mxGeometry y="52" width="160" height="8" as="geometry"/>
                </mxCell>
                <mxCell id="GXodFD7sdriI3j1JUaxQ-56" value="+ method(type): type" style="text;strokeColor=none;fillColor=none;align=left;verticalAlign=top;spacingLeft=4;spacingRight=4;overflow=hidden;rotatable=0;points=[[0,0.5],[1,0.5]];portConstraint=eastwest;" parent="GXodFD7sdriI3j1JUaxQ-53" vertex="1">
                    <mxGeometry y="60" width="160" height="26" as="geometry"/>
                </mxCell>
                <mxCell id="GXodFD7sdriI3j1JUaxQ-57" value="" style="endArrow=none;html=1;edgeStyle=orthogonalEdgeStyle;" parent="XbeN9in1GbnzsduU7_B5-1" source="GXodFD7sdriI3j1JUaxQ-53" target="GXodFD7sdriI3j1JUaxQ-2" edge="1">
                    <mxGeometry relative="1" as="geometry">
                        <mxPoint x="570" y="883" as="sourcePoint"/>
                        <mxPoint x="650" y="883" as="targetPoint"/>
                    </mxGeometry>
                </mxCell>
                <mxCell id="GXodFD7sdriI3j1JUaxQ-58" value="parent" style="edgeLabel;resizable=0;html=1;align=left;verticalAlign=bottom;" parent="GXodFD7sdriI3j1JUaxQ-57" connectable="0" vertex="1">
                    <mxGeometry x="-1" relative="1" as="geometry"/>
                </mxCell>
                <mxCell id="GXodFD7sdriI3j1JUaxQ-59" value="child" style="edgeLabel;resizable=0;html=1;align=right;verticalAlign=bottom;" parent="GXodFD7sdriI3j1JUaxQ-57" connectable="0" vertex="1">
                    <mxGeometry x="1" relative="1" as="geometry"/>
                </mxCell>
            </root>
        </mxGraphModel>
    </diagram>
    <diagram id="etldEG0JA2wfgX6HaUno" name="Page-3">
        <mxGraphModel dx="1238" dy="1075" grid="1" gridSize="10" guides="1" tooltips="1" connect="1" arrows="1" fold="1" page="1" pageScale="1" pageWidth="827" pageHeight="1169" math="0" shadow="0">
            <root>
                <mxCell id="ftMXj6eSEE1kT3inIIqJ-0"/>
                <mxCell id="ftMXj6eSEE1kT3inIIqJ-1" parent="ftMXj6eSEE1kT3inIIqJ-0"/>
            </root>
        </mxGraphModel>
    </diagram>
</mxfile>